<svg width="16" height="12" viewBox="0 0 16 12" fill="none" xmlns="http://www.w3.org/2000/svg">
<path fill-rule="evenodd" clip-rule="evenodd" d="M1 1H15V11H13.6749C13.6747 10.9098 13.6622 10.8175 13.6358 10.7253L13.3501 9.72528C13.2274 9.29598 12.835 9 12.3886 9H3.61144C3.16496 9 2.77258 9.29598 2.64992 9.72528L2.36421 10.7253C2.33784 10.8175 2.3253 10.9098 2.32512 11H1V1ZM3.32573 11H12.6743L12.3886 10H3.61144L3.32573 11ZM3.32573 12H1C0.447715 12 0 11.5523 0 11V1C0 0.447715 0.447715 0 1 0H15C15.5523 0 16 0.447715 16 1V11C16 11.5523 15.5523 12 15 12H12.6743H3.32573ZM3.5 7C3.22386 7 3 7.22386 3 7.5C3 7.77614 3.22386 8 3.5 8H12.5C12.7761 8 13 7.77614 13 7.5C13 7.22386 12.7761 7 12.5 7H3.5ZM14 2.5C14 2.77614 13.7761 3 13.5 3C13.2239 3 13 2.77614 13 2.5C13 2.22386 13.2239 2 13.5 2C13.7761 2 14 2.22386 14 2.5Z" fill="black"/>
</svg>
