<svg width="16" height="16" viewBox="0 0 16 16" fill="none" xmlns="http://www.w3.org/2000/svg">
<line x1="0.5" y1="0.5" x2="15.5" y2="0.500001" stroke="black" stroke-linecap="round"/>
<line x1="0.5" y1="15.5" x2="15.5" y2="15.5" stroke="black" stroke-linecap="round"/>
<path d="M8.35355 2.64645C8.15829 2.45118 7.84171 2.45118 7.64645 2.64645L4.46447 5.82843C4.2692 6.02369 4.2692 6.34027 4.46447 6.53553C4.65973 6.7308 4.97631 6.7308 5.17157 6.53553L8 3.70711L10.8284 6.53553C11.0237 6.7308 11.3403 6.7308 11.5355 6.53553C11.7308 6.34027 11.7308 6.02369 11.5355 5.82843L8.35355 2.64645ZM7.64645 13.3536C7.84171 13.5488 8.15829 13.5488 8.35355 13.3536L11.5355 10.1716C11.7308 9.97631 11.7308 9.65973 11.5355 9.46447C11.3403 9.2692 11.0237 9.2692 10.8284 9.46447L8 12.2929L5.17157 9.46447C4.97631 9.2692 4.65973 9.2692 4.46447 9.46447C4.2692 9.65973 4.2692 9.97631 4.46447 10.1716L7.64645 13.3536ZM7.5 3L7.5 13L8.5 13L8.5 3L7.5 3Z" fill="black"/>
</svg>
