<svg width="28" height="28" viewBox="0 0 28 28" fill="none" xmlns="http://www.w3.org/2000/svg">
<path fill-rule="evenodd" clip-rule="evenodd" d="M13.2604 0.75V0H14.7604V0.75V5.97078C15.7719 5.98397 16.7653 6.16386 17.697 6.49536L17.8512 6.22557L19.8167 2.786L20.1888 2.13482L21.4911 2.87902L21.119 3.53021L19.1536 6.96978L19.0685 7.11866C19.6541 7.44785 20.2007 7.84412 20.6945 8.30267C20.8857 8.48019 21.0671 8.66538 21.2384 8.85747L21.4684 8.72184L24.8809 6.70973L25.527 6.3288L26.2889 7.62091L25.6428 8.00184L22.2303 10.014L22.1327 10.0715C22.6104 10.868 22.9415 11.7382 23.1075 12.6455L23.2111 12.6452L27.1727 12.6343L27.9227 12.6323L27.9268 14.1323L27.1768 14.1343L23.229 14.1451C23.2107 15.0955 23.0126 16.0243 22.6541 16.8923L22.7919 16.972L26.2214 18.9549L26.8707 19.3303L26.1199 20.6289L25.4706 20.2535L22.0411 18.2706L21.9503 18.2181C21.5978 18.752 21.1772 19.2491 20.6945 19.6973C20.502 19.876 20.3016 20.0453 20.0939 20.2048L20.2101 20.4116L22.1493 23.8661L22.5164 24.5201L21.2084 25.2543L20.8413 24.6003L18.9021 21.1459L18.827 21.0122C17.5902 21.6572 16.1936 22.0105 14.7604 22.0292V27.25V28H13.2604V27.25V15.2594L9.72643 19.6437L9.74838 19.9456L9.89336 21.9404L9.94773 22.6884L8.45168 22.7971L8.39731 22.0491L8.34687 21.3552L6.15539 24.0741L5.68472 24.658L4.46731 23.7817L4.93798 23.1978L7.61983 19.8706L5.93819 19.7277L5.19088 19.6643L5.31783 18.1696L6.06514 18.2331L8.05796 18.4024L8.75549 18.4616L12.3486 14.0039L7.07325 13.9876L6.60935 14.4516L5.53074 15.5303L5.00044 16.0607L3.93972 15.0001L4.47002 14.4697L4.95856 13.9811L1.76232 13.9713L1.01232 13.969L0.994127 12.4691L1.74412 12.4714L4.68746 12.4804L4.10892 11.9468L3.55762 11.4383L4.57462 10.3357L5.12592 10.8442L6.55389 12.1613L6.90727 12.4873L12.1482 12.5034L8.43598 7.75L8.25028 7.75L8.00028 7.75H6.00028L5.25028 7.75V6.25L6.00028 6.25H7.26455L5.10593 3.48593L4.6443 2.89483L5.82654 1.97162L6.28817 2.56272L8.25028 5.07517V4V3.25H9.75028V4V6.99589L13.2604 11.4905V0.75ZM14.7604 20.5291L14.7604 7.47093C16.6141 7.49978 18.3757 8.19645 19.6738 9.40186C20.998 10.6315 21.7304 12.2868 21.7304 14C21.7304 15.7132 20.998 17.3685 19.6738 18.5981C18.3757 19.8036 16.6141 20.5002 14.7604 20.5291Z" fill="#2255A1"/>
</svg>
