<svg width="18" height="15" viewBox="0 0 18 15" fill="none" xmlns="http://www.w3.org/2000/svg">
<path d="M2.62495 4.12414C2.62509 3.41308 2.80905 2.71412 3.15896 2.09511C3.50887 1.4761 4.01285 0.958053 4.622 0.591239C5.23115 0.224425 5.92477 0.0213041 6.63556 0.00158653C7.34635 -0.018131 8.05017 0.146225 8.67872 0.478705C9.30726 0.811184 9.83919 1.3005 10.2229 1.89916C10.6066 2.49782 10.829 3.1855 10.8686 3.89546C10.9081 4.60542 10.7635 5.31356 10.4487 5.95115C10.1339 6.58874 9.65965 7.13413 9.07195 7.53439C10.3376 7.99859 11.4353 8.83092 12.2239 9.92427C13.0125 11.0176 13.4559 12.3219 13.4969 13.6694C13.4952 13.8147 13.4374 13.9537 13.3356 14.0573C13.2338 14.161 13.0958 14.2213 12.9506 14.2256C12.8054 14.23 12.6641 14.178 12.5563 14.0807C12.4484 13.9833 12.3824 13.8481 12.3719 13.7031C12.3273 12.2417 11.7154 10.8551 10.6658 9.8372C9.6163 8.81926 8.21166 8.24997 6.74957 8.24997C5.28748 8.24997 3.88284 8.81926 2.83332 9.8372C1.78379 10.8551 1.17186 12.2417 1.1272 13.7031C1.11969 13.85 1.05495 13.9881 0.946865 14.0878C0.838777 14.1876 0.695929 14.241 0.548926 14.2367C0.401922 14.2324 0.262455 14.1706 0.160402 14.0647C0.0583487 13.9589 0.00182726 13.8172 0.00294598 13.6701C0.0438595 12.3226 0.487151 11.0181 1.27576 9.92458C2.06437 8.83109 3.1622 7.99864 4.42795 7.53439C3.87207 7.15612 3.41717 6.64761 3.1029 6.05319C2.78863 5.45878 2.62455 4.79652 2.62495 4.12414ZM6.74995 1.12414C5.9543 1.12414 5.19123 1.44021 4.62863 2.00282C4.06602 2.56543 3.74995 3.32849 3.74995 4.12414C3.74995 4.91979 4.06602 5.68285 4.62863 6.24546C5.19123 6.80807 5.9543 7.12414 6.74995 7.12414C7.5456 7.12414 8.30866 6.80807 8.87127 6.24546C9.43388 5.68285 9.74995 4.91979 9.74995 4.12414C9.74995 3.32849 9.43388 2.56543 8.87127 2.00282C8.30866 1.44021 7.5456 1.12414 6.74995 1.12414ZM12.9674 4.12414C12.8564 4.12414 12.7484 4.13164 12.6419 4.14664C12.5676 4.15995 12.4913 4.15816 12.4177 4.14135C12.344 4.12455 12.2745 4.09308 12.2133 4.04883C12.1521 4.00458 12.1004 3.94845 12.0613 3.8838C12.0223 3.81914 11.9966 3.74728 11.986 3.6725C11.9753 3.59772 11.9798 3.52155 11.9992 3.44854C12.0185 3.37554 12.0524 3.30718 12.0988 3.24756C12.1452 3.18794 12.2031 3.13827 12.2691 3.10152C12.3351 3.06476 12.4078 3.04168 12.4829 3.03364C13.2289 2.92579 13.9895 3.06904 14.6451 3.44083C15.3007 3.81263 15.8141 4.39186 16.1044 5.08739C16.3947 5.78291 16.4456 6.55522 16.2489 7.28279C16.0522 8.01037 15.6192 8.65188 15.0179 9.10639C15.9017 9.50212 16.6521 10.1451 17.1786 10.9579C17.7051 11.7706 17.9851 12.7183 17.9849 13.6866C17.9849 13.8358 17.9257 13.9789 17.8202 14.0844C17.7147 14.1899 17.5716 14.2491 17.4224 14.2491C17.2733 14.2491 17.1302 14.1899 17.0247 14.0844C16.9192 13.9789 16.8599 13.8358 16.8599 13.6866C16.8599 12.8497 16.5902 12.0351 16.0909 11.3635C15.5916 10.6919 14.8893 10.1989 14.0879 9.95764L13.6874 9.83764V8.58064L13.9949 8.42389C14.4508 8.193 14.8155 7.81523 15.0302 7.35157C15.2449 6.88791 15.2971 6.36543 15.1783 5.86846C15.0596 5.37149 14.7768 4.92905 14.3756 4.61256C13.9745 4.29607 13.4784 4.124 12.9674 4.12414Z" fill="black"/>
</svg>
