<svg width="16" height="16" viewBox="0 0 16 16" fill="none" xmlns="http://www.w3.org/2000/svg">
<path fill-rule="evenodd" clip-rule="evenodd" d="M14 1H2C1.44772 1 1 1.44772 1 2V14C1 14.5523 1.44772 15 2 15H14C14.5523 15 15 14.5523 15 14V2C15 1.44772 14.5523 1 14 1ZM2 0C0.895431 0 0 0.895431 0 2V14C0 15.1046 0.895431 16 2 16H14C15.1046 16 16 15.1046 16 14V2C16 0.895431 15.1046 0 14 0H2ZM8.5 2.5L13 2.5C13.2761 2.5 13.5 2.72386 13.5 3V7.5C13.5 7.77614 13.2761 8 13 8C12.7239 8 12.5 7.77614 12.5 7.5V4.20711L9.35355 7.35355L8.64645 6.64645L11.7929 3.5L8.5 3.5C8.22386 3.5 8 3.27614 8 3C8 2.72386 8.22386 2.5 8.5 2.5ZM3 13.5H7.5C7.77614 13.5 8 13.2761 8 13C8 12.7239 7.77614 12.5 7.5 12.5H4.20711L7.35355 9.35355L6.64645 8.64645L3.5 11.7929L3.5 8.5C3.5 8.22386 3.27614 8 3 8C2.72386 8 2.5 8.22386 2.5 8.5L2.5 13C2.5 13.2761 2.72386 13.5 3 13.5Z" fill="black"/>
</svg>
