<svg width="18" height="18" viewBox="0 0 18 18" fill="none" xmlns="http://www.w3.org/2000/svg">
<path d="M17 7.91892V1.51892C17 1.38129 16.9494 1.2493 16.8594 1.15199C16.7694 1.05467 16.6473 1 16.52 1H1.48C1.3527 1 1.23061 1.05467 1.14059 1.15199C1.05057 1.2493 1 1.38129 1 1.51892V7.91892M17 7.91892H1M17 7.91892L16.368 10.1537C16.2679 10.508 16.0653 10.8182 15.79 11.0387C15.5146 11.2592 15.1811 11.3782 14.8384 11.3784H13.8M1 7.91892L1.632 10.1537C1.73205 10.508 1.93467 10.8182 2.21003 11.0387C2.48539 11.2592 2.81895 11.3782 3.1616 11.3784H4.2M13.8 4.45946H14.6M7 10.9459C7 10.9459 7 17 4.2 17M11 10.9459C11 10.9459 11 17 13.8 17M9 10.9459V17" stroke="black" stroke-linecap="round" stroke-linejoin="round"/>
</svg>
